<?xml version="1.0" encoding="iso-8859-1"?>
<!-- Generator: Adobe Illustrator 19.0.0, SVG Export Plug-In . SVG Version: 6.00 Build 0)  -->
<svg version="1.1" id="Layer_1" xmlns="http://www.w3.org/2000/svg" xmlns:xlink="http://www.w3.org/1999/xlink" x="0px" y="0px"
	 viewBox="0 0 512 512" style="enable-background:new 0 0 512 512;" xml:space="preserve">
<g>
	<g>
		<path d="M212.881,461.832h-0.137c-5.771,0-10.449,4.678-10.449,10.449c0,5.771,4.678,10.449,10.449,10.449h0.137
			c5.771,0,10.449-4.678,10.449-10.449C223.33,466.51,218.652,461.832,212.881,461.832z"/>
	</g>
</g>
<g>
	<g>
		<path d="M265.127,467.207l-20.962-37.616c-1.845-3.31-5.337-5.362-9.127-5.362H31.411c-3.79,0-7.283,2.052-9.127,5.362
			L1.322,467.207C0.456,468.763,0,470.513,0,472.294v29.257C0,507.322,4.678,512,10.449,512H256c5.771,0,10.449-4.678,10.449-10.449
			v-29.257C266.449,470.513,265.993,468.763,265.127,467.207z M245.551,491.102H20.898v-8.372h158.043
			c5.771,0,10.449-4.678,10.449-10.449c0-5.771-4.678-10.449-10.449-10.449H28.24l9.31-16.706H228.9l16.651,29.882V491.102z"/>
	</g>
</g>
<g>
	<g>
		<path d="M82.153,245.547c-5.771,0-10.449,4.678-10.449,10.449v0.137c0,5.771,4.678,10.449,10.449,10.449
			c5.771,0,10.449-4.678,10.449-10.449v-0.137C92.602,250.225,87.924,245.547,82.153,245.547z"/>
	</g>
</g>
<g>
	<g>
		<path d="M82.153,71.053c-5.771,0-10.449,4.678-10.449,10.449v140.689c0,5.771,4.678,10.449,10.449,10.449
			c5.771,0,10.449-4.678,10.449-10.449V81.502C92.602,75.731,87.924,71.053,82.153,71.053z"/>
	</g>
</g>
<g>
	<g>
		<path d="M501.551,153.861H313.276c-3.529-3.811-8.556-6.214-14.147-6.214h-19.908c-5.591,0-10.618,2.403-14.147,6.214h-39.376
			V85.84c7.776-2.747,14.408-8.295,18.462-15.793l10.908-20.175c2.66-4.921,4.067-10.48,4.067-16.075
			C259.135,15.161,243.973,0,225.336,0H33.798C15.161,0,0,15.161,0,33.798c0,5.594,1.406,11.153,4.067,16.074l10.908,20.176
			c4.054,7.497,10.686,13.046,18.462,15.793v211.274c-7.776,2.747-14.408,8.295-18.462,15.793L4.067,333.083
			C1.406,338.004,0,343.562,0,349.157c0,18.637,15.161,33.798,33.798,33.798h191.538c18.637,0,33.798-15.161,33.798-33.798
			c0-5.594-1.406-11.152-4.067-16.074l-10.908-20.176c-4.053-7.497-10.686-13.046-18.461-15.793v-68.021h39.377
			c3.529,3.811,8.556,6.214,14.147,6.214h19.908c5.591,0,10.618-2.403,14.147-6.214h188.273c5.771,0,10.449-4.678,10.449-10.449
			V164.31C512,158.539,507.322,153.861,501.551,153.861z M33.358,60.109L22.451,39.934c-1.016-1.879-1.553-4-1.553-6.136
			c0-7.113,5.788-12.9,12.9-12.9h191.538c7.113,0,12.9,5.788,12.9,12.9c0,0.229-0.03,0.456-0.043,0.683h-98.405
			c-5.771,0-10.449,4.678-10.449,10.449c0,5.771,4.678,10.449,10.449,10.449h88.545l-2.557,4.728
			c-2.256,4.173-6.605,6.766-11.348,6.766H44.706C39.962,66.873,35.613,64.281,33.358,60.109z M204.8,88.033v76.278v54.335v76.278
			H54.335V88.033H204.8z M225.776,322.846l10.908,20.175c1.016,1.879,1.553,4,1.553,6.136c0,7.114-5.788,12.9-12.9,12.9H33.798
			c-7.113,0-12.9-5.788-12.9-12.9c0-0.053,0.009-0.107,0.01-0.161h99.294c5.771,0,10.449-4.678,10.449-10.449
			s-4.678-10.449-10.449-10.449H30.518l2.839-5.251c2.256-4.173,6.605-6.766,11.348-6.766h169.724
			C219.173,316.082,223.521,318.674,225.776,322.846z M259.918,208.196h-34.22v-33.437h34.22V208.196z M297.535,214.41h-16.718
			v-45.866h16.718V214.41z M491.102,208.196H318.433v-33.437h172.669V208.196z"/>
	</g>
</g>
<g>
</g>
<g>
</g>
<g>
</g>
<g>
</g>
<g>
</g>
<g>
</g>
<g>
</g>
<g>
</g>
<g>
</g>
<g>
</g>
<g>
</g>
<g>
</g>
<g>
</g>
<g>
</g>
<g>
</g>
</svg>
