<svg id="Capa_1" enable-background="new 0 0 512 512" height="512" viewBox="0 0 512 512" width="512" xmlns="http://www.w3.org/2000/svg"><g><path d="m497 0h-482c-8.284 0-15 6.716-15 15v180c0 8.284 6.716 15 15 15h96v52.58c-17.459 6.192-30 22.865-30 42.42v70c0 41.355 33.645 75 75 75h25v47c0 8.284 6.716 15 15 15h120c8.284 0 15-6.716 15-15v-47h25c41.355 0 75-33.645 75-75v-70c0-19.555-12.541-36.228-30-42.42v-52.58h96c8.284 0 15-6.716 15-15v-180c0-8.284-6.716-15-15-15zm-96 375c0 24.813-20.187 45-45 45h-40c-8.284 0-15 6.716-15 15v47h-90v-47c0-8.284-6.716-15-15-15h-40c-24.813 0-45-20.187-45-45v-70c0-8.271 6.729-15 15-15s15 6.729 15 15v70c0 8.284 6.716 15 15 15h200c8.284 0 15-6.716 15-15v-70c0-8.271 6.729-15 15-15s15 6.729 15 15zm-175-45c0-16.542 13.458-30 30-30s30 13.458 30 30-13.458 30-30 30-30-13.458-30-30zm145-67.42c-17.459 6.192-30 22.865-30 42.42v55h-33.072c5.123-8.833 8.072-19.075 8.072-30 0-33.084-26.916-60-60-60s-60 26.916-60 60c0 10.925 2.949 21.167 8.072 30h-33.072v-55c0-19.555-12.541-36.228-30-42.42v-52.58h230zm111-82.58h-452v-150h452z"/><path d="m134 150c5.523 0 10-4.477 10-10v-70c0-5.523-4.477-10-10-10s-10 4.477-10 10v70c0 5.523 4.477 10 10 10z"/><path d="m263 150c5.523 0 10-4.477 10-10v-26.201h28.441v26.201c0 5.523 4.477 10 10 10s10-4.477 10-10v-70c0-5.523-4.477-10-10-10s-10 4.477-10 10v23.799h-28.441v-23.799c0-5.523-4.477-10-10-10s-10 4.477-10 10v70c0 5.523 4.477 10 10 10z"/><path d="m200.786 150c23.677 0 40.214-18.505 40.214-45 0-5.523-4.477-10-10-10h-20.94c-5.523 0-10 4.477-10 10s4.477 10 10 10h9.61c-2.375 8.281-8.134 15-18.884 15-13.785 0-25-11.215-25-25s11.215-25 25-25c5.011 0 9.842 1.475 13.971 4.264 4.576 3.091 10.792 1.888 13.884-2.688s1.888-10.792-2.688-13.884c-7.448-5.032-16.15-7.692-25.167-7.692-24.813 0-45 20.187-45 45s20.187 45 45 45z"/><path d="m428.937 150c15.358 0 28.264-9.847 30.686-23.413 1.832-10.258-2.762-23.636-21.147-30.417-8.385-3.093-16.206-6.457-18.826-7.601-1.238-1.082-1.257-2.503-1.143-3.304.143-.999.887-3.444 4.691-4.589 9.186-2.766 17.824 3.996 18.113 4.226 4.228 3.499 10.493 2.938 14.03-1.27 3.554-4.228 3.007-10.536-1.22-14.089-.682-.574-16.933-13.972-36.691-8.017-10.135 3.053-17.308 11.061-18.72 20.898-1.329 9.26 2.687 18.168 10.48 23.249.441.288.905.541 1.386.755.407.181 10.083 4.489 20.978 8.507 2.164.798 9.164 3.745 8.38 8.138-.595 3.332-4.969 6.929-10.998 6.929-6.61 0-12.959-2.651-16.983-7.091-3.709-4.092-10.034-4.404-14.125-.695-4.093 3.709-4.404 10.033-.695 14.125 7.867 8.68 19.46 13.659 31.804 13.659z"/><path d="m340.342 80h9.251v60c0 5.523 4.477 10 10 10s10-4.477 10-10v-60h9.407c5.523 0 10-4.477 10-10s-4.477-10-10-10h-38.658c-5.523 0-10 4.477-10 10s4.477 10 10 10z"/><path d="m65 150c5.523 0 10-4.477 10-10v-16.502l20.339 23.109c1.977 2.246 4.737 3.393 7.511 3.393 2.346 0 4.703-.821 6.603-2.493 4.146-3.649 4.549-9.968.9-14.114l-16.532-18.783c11.099-4.001 19.025-14.332 19.025-26.417 0-15.546-13.109-28.193-29.222-28.193h-18.601c-.004 0-.008.001-.012.001-.003 0-.007-.001-.011-.001-5.523 0-10 4.477-10 10v70c0 5.523 4.477 10 10 10zm18.624-70c4.999 0 9.222 3.751 9.222 8.192 0 4.44-4.223 8.192-9.222 8.192-2.023 0-5.294.012-8.528.027-.015-3.133-.034-13.12-.043-16.411z"/></g></svg>